<svg xmlns="http://www.w3.org/2000/svg" viewBox="0 0 952.51 183.56" width="952.51" height="183.56"><defs><style>.cls-1{fill:#04c640;}.cls-2{fill:#02c640;}</style></defs><title>Asset 3</title><g id="Layer_2" data-name="Layer 2"><g id="svg2816"><g id="_1BHhvR.tif" data-name="1BHhvR.tif"><path class="cls-1" d="M318.24,110.1c0,12.83,0,25.66,0,38.49,0,20-13.44,33.66-33.44,33.83-16.49.14-33-.06-49.49.1-3.23,0-4.34-.79-4.16-4.12a127.45,127.45,0,0,0,0-15c-.21-3.47,1.17-4.07,4.27-4,16.33.13,32.66.08,49,.05,7.08,0,10.26-3.11,11-10.1.34-3.38-.49-4.66-4.2-4.59-12.16.23-24.33.1-36.49.09-23,0-35.46-12.48-35.46-35.54,0-12.83,0-25.66,0-38.49.08-18.75,12.6-32,31.25-32.57,12-.37,24-.41,36,0,18.68.6,31.71,14.32,31.76,32.91C318.27,84.11,318.24,97.11,318.24,110.1ZM295.39,94.78c0-7.32,0-14.64,0-22-.05-8.53-3.18-11.63-11.85-11.67q-15.48-.08-31,0c-7.4,0-10.4,2.83-10.46,10.19q-.18,20.22,0,40.44c.07,7.09,3.13,10.07,10.12,10.09,13.14,0,26.29-.18,39.43,0,3.3,0,3.82-1.23,3.76-4.08C295.29,110.09,295.39,102.43,295.39,94.78Z"/><path class="cls-1" d="M952.41,96.78c0,17.33,0,34.66,0,52-.06,20.31-13.48,33.9-33.75,34-16.16.11-32.33-.13-48.49.13-4.13.06-5.13-1.32-4.84-5.1a61.36,61.36,0,0,0,0-12c-.62-5.11,1.49-5.94,6.09-5.85,15.32.29,30.66.18,46,.08,8.36-.05,11.7-3.33,12.31-11.15.22-2.83-.58-3.73-3.48-3.7-12.83.14-25.66.07-38.49.06-21.29,0-34.31-13-34.32-34.23,0-22.83.08-45.66-.09-68.48,0-3.56,1-4.58,4.46-4.37a117.3,117.3,0,0,0,14.49,0c3.41-.22,4.07,1,4.05,4.19-.13,22.33-.07,44.65-.07,67,0,10.49,2.48,13,12.86,13.06,12,0,24-.15,36,.1,3.76.08,4.72-1,4.69-4.71-.17-24.83,0-49.65-.19-74.48,0-4.21,1.07-5.52,5.23-5.15a79.18,79.18,0,0,0,13,0c3.69-.28,4.76.77,4.71,4.59C952.28,60.79,952.41,78.78,952.41,96.78Z"/><path class="cls-1" d="M.06,123.29c0-17.66,0-35.32,0-53C.11,51,12.46,38.42,31.83,38.14q18-.26,36,0c19.72.32,31.42,12.42,31.43,32.21q0,21.24,0,42.48c0,19.73-12.29,32.09-32.12,32.26-13.33.11-26.66.14-40-.06-3.5-.05-4.52.94-4.43,4.44.23,9.82,0,19.66.15,29.48.07,3.33-.64,4.81-4.33,4.56a111.32,111.32,0,0,0-14.48,0c-3.49.22-4-1.19-4-4.27C.12,160.6.06,141.94.06,123.29ZM22.78,94c0,8,.16,16-.08,24-.1,3.4,1.09,4.2,4.29,4.17,13.33-.15,26.66,0,40-.08,7,0,9.34-2.26,9.38-9.25q.13-21.49,0-43c0-6.63-2.13-8.68-8.69-8.71-11.66-.06-23.33,0-35,0-7.41,0-9.77,2.31-9.88,9.89S22.78,86.35,22.78,94Z"/><path class="cls-2" d="M620.41,60.59c0,17.15,0,34.31,0,51.46-.05,20.85-12.41,33.18-33.36,33-13.47-.1-27,1.2-40.41-.62-15.11-2.05-24.77-12.91-25.21-28.24-.47-16-.49-32,0-48,.57-18.17,13.14-29.76,31.37-29.81,13.49,0,27-.1,40.47.06,3.17,0,4.29-.71,4.22-4.09-.22-10.15,0-20.32-.15-30.48-.06-3.13.93-4,4-3.9a128.51,128.51,0,0,0,14.48,0c3.66-.24,4.79.75,4.74,4.6C620.28,23.28,620.41,41.94,620.41,60.59Zm-23,28.68c0-8.16-.06-16.32,0-24.48,0-2.33-.24-3.61-3.14-3.57-14,.15-28,0-42,.12-5.68.06-8,2.7-8.07,8.51q-.09,22,0,44c0,6.13,2.24,8.39,8.5,8.44q18,.14,36,0c6.15-.05,8.61-2.7,8.65-9C597.44,105.26,597.4,97.27,597.39,89.28Z"/><path class="cls-1" d="M389.76,145.46c-9.33,0-18.66.06-28,0-18.5-.14-31.87-13.31-32.05-31.74-.15-14.33-.17-28.66,0-43,.24-19.37,13.61-32.42,33-32.44,11.33,0,22.66-.15,34,0,14.75.25,27.81,10.77,30.47,24.23,3.25,16.49-3.81,31.58-17.81,38a31.82,31.82,0,0,1-13.59,2.72c-13.16,0-26.33.11-39.48-.09-3.3,0-4.56.89-4,4.14a16.33,16.33,0,0,1,0,2.5c0,10.05,2.79,12.89,12.66,12.89,18,0,36,.19,54-.12,4.78-.08,6,1.43,5.61,5.85a100.94,100.94,0,0,0,0,13.49c.16,3-1,3.6-3.72,3.56C410.43,145.37,400.09,145.46,389.76,145.46ZM375.24,80.8v-.11c6.82,0,13.66.27,20.46-.08,6.13-.31,9.51-4.17,9.53-9.93s-3.48-9.6-9.72-9.77q-16.71-.45-33.44,0c-6.33.16-9.53,3.87-9.81,10.27-.09,2,.14,4-.06,6-.28,2.78.67,3.79,3.57,3.71C362.25,80.67,368.75,80.8,375.24,80.8Z"/><path class="cls-1" d="M152.15,38.28c8.55.54,19.12-1.21,29.49.75,16.3,3.09,25.86,14.59,26.1,31.11.2,14.16.26,28.32,0,42.48-.37,19.48-13.57,32.47-33,32.44-12.48,0-25,1.11-37.42-.66-17.86-2.55-28.37-16.27-27.06-34.63,1.24-17.38,14.43-29.47,32.2-29.5,13,0,26-.1,39,.07,3.05,0,4.29-.71,3.85-3.85a41.17,41.17,0,0,1,0-5c-.11-7.17-3.51-10.63-10.83-10.66-16.82-.07-33.65-.12-50.47.05-3.54,0-5.12-.58-4.79-4.57a115.43,115.43,0,0,0,0-14.48c-.12-2.8.71-3.69,3.58-3.64C131.91,38.39,141.07,38.28,152.15,38.28Zm6.53,84.12v0h16c.33,0,.66,0,1,0,6-.41,9.35-3.79,9.58-9.87.08-2.16-.15-4.34.05-6.48.26-2.74-1-3.32-3.45-3.3-13,.1-25.94-.05-38.91.1-6.4.08-10.26,3.89-10.45,9.69-.18,5.59,3.85,9.62,10.25,9.85C148,122.55,153.36,122.39,158.68,122.39Z"/><path class="cls-1" d="M730.78,91.78c0,16.49-.09,33,.07,49.46,0,3.3-.93,4.16-4.2,4.13-21-.15-42,0-62.94-.11-18.92-.15-31.58-13-31.63-31.87-.06-23.65,0-47.29-.08-70.94,0-3.09.55-4.47,4-4.24a109.94,109.94,0,0,0,14.48,0c3.62-.24,4.38,1.09,4.36,4.48-.14,22.48-.08,45-.07,67.44,0,10.18,2.08,12.28,12.3,12.31,12.16,0,24.32-.16,36.47.11,3.91.09,4.62-1.21,4.6-4.8-.15-25,0-50-.18-74.93,0-3.8,1-4.88,4.69-4.61a90,90,0,0,0,13.48,0c3.71-.28,4.79.81,4.74,4.62C730.65,59.14,730.78,75.46,730.78,91.78Z"/><path class="cls-2" d="M780.4,103.22c0-12.66-.1-25.32.07-38,0-3.19-.75-4.28-4.1-4.2-10,.22-20-.08-30,.16-3.57.09-4.58-1.05-4.39-4.49a118.22,118.22,0,0,0,0-14.48c-.23-3.49,1.18-4.07,4.25-4,9.66.17,19.34-.25,29,.2,4.72.22,5.47-1.46,5.27-5.58-.33-6.65,0-13.33-.15-20-.09-2.87.83-3.74,3.66-3.63,5.32.2,10.66.21,16,0,2.7-.11,3.37.82,3.31,3.4-.16,7,.23,14-.16,21-.24,4.18,1.33,4.85,5,4.76,9.82-.23,19.66.05,29.48-.15,3.34-.07,4.77.61,4.53,4.3a142.55,142.55,0,0,0,0,15c.11,2.84-.84,3.73-3.68,3.69-10.33-.15-20.66.11-31-.15-3.64-.09-4.33,1.08-4.31,4.48.15,25,0,50,.17,75,0,3.85-.86,5.22-4.86,4.91a118.93,118.93,0,0,0-14.48,0c-2.85.13-3.68-.79-3.65-3.64C780.48,128.88,780.4,116,780.4,103.22Z"/><path class="cls-1" d="M437.08,104.8c0-13.15-.68-26.34.18-39.43,1-15.39,13.4-26.61,28.91-27,14.31-.36,28.64,0,43-.14,2.66,0,3.42.81,3.33,3.39-.18,5.32-.2,10.66,0,16,.12,2.95-1,3.61-3.75,3.58-12.49-.12-25-.06-37.47-.05-9.58,0-11.82,2.19-11.83,11.67,0,22.65-.1,45.3.09,67.94,0,3.76-.92,4.92-4.67,4.63a90,90,0,0,0-13.48,0c-3.67.27-4.85-.74-4.76-4.6.27-12,.1-24,.1-36Z"/></g></g></g></svg>
